<svg width="18" height="16" viewBox="0 0 18 16" fill="none" xmlns="http://www.w3.org/2000/svg">
<path d="M9.83464 11.3333H8.16797C7.70964 11.3333 7.33464 10.9583 7.33464 10.5H1.50964V13.8333C1.50964 14.75 2.25964 15.5 3.1763 15.5H14.8346C15.7513 15.5 16.5013 14.75 16.5013 13.8333V10.5H10.668C10.668 10.9583 10.293 11.3333 9.83464 11.3333ZM15.668 3.83333H12.3346C12.3346 1.99167 10.843 0.5 9.0013 0.5C7.15964 0.5 5.66797 1.99167 5.66797 3.83333H2.33464C1.41797 3.83333 0.667969 4.58333 0.667969 5.5V8C0.667969 8.925 1.40964 9.66667 2.33464 9.66667H7.33464V8.83333C7.33464 8.375 7.70964 8 8.16797 8H9.83464C10.293 8 10.668 8.375 10.668 8.83333V9.66667H15.668C16.5846 9.66667 17.3346 8.91667 17.3346 8V5.5C17.3346 4.58333 16.5846 3.83333 15.668 3.83333ZM7.33464 3.83333C7.33464 2.91667 8.08464 2.16667 9.0013 2.16667C9.91797 2.16667 10.668 2.91667 10.668 3.83333H7.3263H7.33464Z" fill="#242424"/>
</svg>
