<svg width="16" height="18" viewBox="0 0 16 18" fill="none" xmlns="http://www.w3.org/2000/svg">
<path d="M13.8333 2.49967H13V1.66634C13 1.20801 12.625 0.833008 12.1667 0.833008C11.7083 0.833008 11.3333 1.20801 11.3333 1.66634V2.49967H4.66667V1.66634C4.66667 1.20801 4.29167 0.833008 3.83333 0.833008C3.375 0.833008 3 1.20801 3 1.66634V2.49967H2.16667C1.24167 2.49967 0.508333 3.24967 0.508333 4.16634L0.5 15.833C0.5 16.7497 1.24167 17.4997 2.16667 17.4997H13.8333C14.75 17.4997 15.5 16.7497 15.5 15.833V4.16634C15.5 3.24967 14.75 2.49967 13.8333 2.49967ZM13 15.833H3C2.54167 15.833 2.16667 15.458 2.16667 14.9997V6.66634H13.8333V14.9997C13.8333 15.458 13.4583 15.833 13 15.833ZM4.66667 8.33301H7.16667C7.625 8.33301 8 8.70801 8 9.16634V11.6663C8 12.1247 7.625 12.4997 7.16667 12.4997H4.66667C4.20833 12.4997 3.83333 12.1247 3.83333 11.6663V9.16634C3.83333 8.70801 4.20833 8.33301 4.66667 8.33301Z" fill="#727272"/>
</svg>
