<svg width="24" height="24" viewBox="0 0 24 24" fill="none" xmlns="http://www.w3.org/2000/svg">
<path d="M21.3333 13.3333V20C21.3333 20.7333 20.7333 21.3333 20 21.3333H4C3.26667 21.3333 2.66667 20.7333 2.66667 20V13.3333C2.66667 12.6 2.06667 12 1.33333 12C0.6 12 0 12.6 0 13.3333V21.3333C0 22.8 1.2 24 2.66667 24H21.3333C22.8 24 24 22.8 24 21.3333V13.3333C24 12.6 23.4 12 22.6667 12C21.9333 12 21.3333 12.6 21.3333 13.3333ZM13.3333 12.8933L15.84 10.3867C16.36 9.86667 17.2 9.86667 17.72 10.3867C18.24 10.9067 18.24 11.7467 17.72 12.2667L12.9333 17.0533C12.4133 17.5733 11.5733 17.5733 11.0533 17.0533L6.26667 12.2667C5.74667 11.7467 5.74667 10.9067 6.26667 10.3867C6.78667 9.86667 7.62667 9.86667 8.14667 10.3867L10.6667 12.8933V1.33333C10.6667 0.6 11.2667 0 12 0C12.7333 0 13.3333 0.6 13.3333 1.33333V12.8933Z" fill="#25689E"/>
</svg>
