<svg width="12" height="16" viewBox="0 0 12 16" fill="none" xmlns="http://www.w3.org/2000/svg">
<path d="M6.0013 15.4992C4.94875 14.6014 3.97313 13.6171 3.08464 12.5567C1.7513 10.9642 0.167969 8.59252 0.167969 6.33252C0.166788 3.97214 1.58818 1.84368 3.76886 0.940352C5.94954 0.0370244 8.45969 0.536888 10.128 2.20669C11.225 3.29886 11.8396 4.78451 11.8347 6.33252C11.8347 8.59252 10.2513 10.9642 8.91797 12.5567C8.02948 13.6171 7.05386 14.6014 6.0013 15.4992ZM6.0013 3.83252C5.10814 3.83252 4.28282 4.30902 3.83624 5.08252C3.38966 5.85602 3.38966 6.80902 3.83624 7.58252C4.28282 8.35602 5.10814 8.83252 6.0013 8.83252C7.38202 8.83252 8.5013 7.71323 8.5013 6.33252C8.5013 4.95181 7.38202 3.83252 6.0013 3.83252Z" fill="#242424"/>
</svg>
