<svg width="15" height="22" viewBox="0 0 15 22" fill="none" xmlns="http://www.w3.org/2000/svg">
<path fill-rule="evenodd" clip-rule="evenodd" d="M0.864258 6.98464C0.864258 9.51619 2.00129 10.7462 3.09613 12.7711C3.24865 13.0533 3.41407 13.3146 3.57946 13.6103C4.81722 15.8249 6.19219 18.0936 7.42307 20.3058C7.53902 20.5146 7.84409 20.9617 7.89053 21.1609H7.97293C8.01698 20.9719 8.31629 20.523 8.42565 20.3322L11.3185 15.29C11.4033 15.1429 11.4687 15.0228 11.5559 14.8661C11.6416 14.712 11.7173 14.6078 11.8024 14.4514C11.9597 14.1628 12.114 13.9063 12.2693 13.6367C12.4332 13.352 12.574 13.0839 12.7492 12.7941C13.2005 12.0489 14.3583 10.0924 14.6016 9.3562C15.1801 7.60518 15.1436 5.88771 14.3933 4.2014C14.2112 3.79241 14.0305 3.45564 13.7929 3.10747C13.6718 2.93009 13.5502 2.78087 13.4228 2.60948C13.1586 2.25293 12.4829 1.6297 12.1125 1.35734C11.1175 0.626545 9.61903 0 8.26232 0C6.94575 0 5.99359 0.118367 4.8592 0.688559C4.46639 0.886014 4.13438 1.08587 3.7988 1.32258L3.31249 1.70431C1.82124 3.08829 0.864258 4.80065 0.864258 6.98464Z" fill="#04B858"/>
</svg>
