<svg width="18" height="18" viewBox="0 0 18 18" fill="none" xmlns="http://www.w3.org/2000/svg">
<path d="M9.0013 0.666992C4.4013 0.666992 0.667969 4.40033 0.667969 9.00033C0.667969 13.6003 4.4013 17.3337 9.0013 17.3337C13.6013 17.3337 17.3346 13.6003 17.3346 9.00033C17.3346 4.40033 13.6013 0.666992 9.0013 0.666992ZM10.1763 14.0753V14.5587C10.1763 15.167 9.6763 15.667 9.06797 15.667H9.05964C8.4513 15.667 7.9513 15.167 7.9513 14.5587V14.0587C6.84297 13.8253 5.85964 13.217 5.44297 12.192C5.2513 11.7337 5.60964 11.2253 6.10964 11.2253H6.30964C6.61797 11.2253 6.86797 11.4337 6.98464 11.7253C7.2263 12.3503 7.85964 12.7837 9.0763 12.7837C10.7096 12.7837 11.0763 11.967 11.0763 11.4587C11.0763 10.767 10.7096 10.117 8.8513 9.67533C6.78464 9.17533 5.36797 8.32533 5.36797 6.61699C5.36797 5.18366 6.5263 4.25033 7.95964 3.94199V3.44199C7.95964 2.83366 8.45964 2.33366 9.06797 2.33366H9.0763C9.68464 2.33366 10.1846 2.83366 10.1846 3.44199V3.95866C11.3346 4.24199 12.0596 4.95866 12.3763 5.84199C12.543 6.30033 12.193 6.78366 11.7013 6.78366H11.4846C11.1763 6.78366 10.9263 6.56699 10.843 6.26699C10.6513 5.63366 10.1263 5.22533 9.0763 5.22533C7.8263 5.22533 7.0763 5.79199 7.0763 6.59199C7.0763 7.29199 7.61797 7.75033 9.3013 8.18366C10.9846 8.61699 12.7846 9.34199 12.7846 11.442C12.768 12.967 11.6263 13.8003 10.1763 14.0753Z" fill="#242424"/>
</svg>
