<svg width="14" height="14" viewBox="0 0 14 14" fill="none" xmlns="http://www.w3.org/2000/svg">
<path d="M6.99203 0.333984C3.31203 0.333984 0.332031 3.32065 0.332031 7.00065C0.332031 10.6807 3.31203 13.6673 6.99203 13.6673C10.6787 13.6673 13.6654 10.6807 13.6654 7.00065C13.6654 3.32065 10.6787 0.333984 6.99203 0.333984ZM6.9987 12.334C4.05203 12.334 1.66536 9.94732 1.66536 7.00065C1.66536 4.05398 4.05203 1.66732 6.9987 1.66732C9.94536 1.66732 12.332 4.05398 12.332 7.00065C12.332 9.94732 9.94536 12.334 6.9987 12.334ZM6.85203 3.66732H6.81203C6.54536 3.66732 6.33203 3.88065 6.33203 4.14732V7.29398C6.33203 7.52732 6.45203 7.74732 6.6587 7.86732L9.42537 9.52732C9.65203 9.66065 9.94536 9.59398 10.0787 9.36732C10.2187 9.14065 10.1454 8.84065 9.91203 8.70732L7.33203 7.17398V4.14732C7.33203 3.88065 7.1187 3.66732 6.85203 3.66732Z" fill="#242424"/>
</svg>
